<?xml version="1.0" encoding="utf-8"?>
<svg id="master-artboard" viewBox="0 0 1400 1400" version="1.1" xmlns="http://www.w3.org/2000/svg" x="0px" y="0px" width="1400px" height="1400px" enable-background="new 0 0 1400 1400">
<linearGradient id="SVGID_1_" gradientUnits="userSpaceOnUse" x1="1400" y1="1400" x2="4.714070e-008" y2="-4.714116e-008">
	<stop offset="0" style="stop-color:#62C8FF"/>
	<stop offset="1" style="stop-color:#9695FF"/>
</linearGradient>


<g>
	<g>
		<path fill-rule="evenodd" clip-rule="evenodd" fill="#B0C4ED" d="M352.4,750.8c-0.6,93.8,15.4,173.8,38.5,247.8&#10;&#9;&#9;&#9;c-2.3,11.7-4.1,28.2,2.9,31.1c14.1,6,104.5,11.4,117.2,10c8.8-0.9,26.2-5.5,30.9-12.9c5-8-7.5-32-12.6-43&#10;&#9;&#9;&#9;c2.4-86.8-4.2-167-23.6-237.9L352.4,750.8z"/>
		<linearGradient id="SVGID_2_" gradientUnits="userSpaceOnUse" x1="425.3384" y1="746.9235" x2="425.3384" y2="967.8159">
			<stop offset="0" style="stop-color:#7B98D1"/>
			<stop offset="1" style="stop-color:#7B98D1;stop-opacity:0"/>
		</linearGradient>
		<path fill-rule="evenodd" clip-rule="evenodd" fill="url(#SVGID_2_)" d="M358.5,750.6c-1.2,79.3,9.3,151.7,31.8,217.2&#10;&#9;&#9;&#9;c46.4-20.5,83-54.9,101.8-104.1c-4.7-39.3-12.1-77.5-16.8-116.8L358.5,750.6z"/>
		<linearGradient id="SVGID_3_" gradientUnits="userSpaceOnUse" x1="418.1068" y1="746.9235" x2="418.1068" y2="898.6277">
			<stop offset="0" style="stop-color:#6B88C2"/>
			<stop offset="1" style="stop-color:#6B88C2;stop-opacity:0"/>
		</linearGradient>
		<path fill-rule="evenodd" clip-rule="evenodd" fill="url(#SVGID_3_)" d="M358.5,750.6c-0.8,51.2,3.3,99.5,12.4,145&#10;&#9;&#9;&#9;c62.4,21.2,119.1-72.4,104.5-148.7L358.5,750.6z"/>
		<path fill-rule="evenodd" clip-rule="evenodd" fill="#FFFFFF" d="M511.1,1039.8c8.8-0.9,26.2-5.5,30.9-12.9c5-8-7.5-32-12.6-43&#10;&#9;&#9;&#9;c2.4-86.8-4.2-167-23.6-237.9l-30.4,1c21.2,91.5,27,171.4,24.5,245.1C508.3,1011,511.6,1026.6,511.1,1039.8L511.1,1039.8z"/>
		<linearGradient id="SVGID_4_" gradientUnits="userSpaceOnUse" x1="416.9395" y1="746.9235" x2="416.9395" y2="839.277">
			<stop offset="0" style="stop-color:#5D7CBA"/>
			<stop offset="1" style="stop-color:#5D7CBA;stop-opacity:0"/>
		</linearGradient>
		<path fill-rule="evenodd" clip-rule="evenodd" fill="url(#SVGID_4_)" d="M358.5,750.6c-0.5,30.6,0.8,60.1,3.8,88.6&#10;&#9;&#9;&#9;c34.7-18.4,93.4-57.1,113-92.4L358.5,750.6z"/>
	</g>
	<g>
		<path fill-rule="evenodd" clip-rule="evenodd" fill="#FF6666" d="M480.1,743.8c3.2,19.4,6.6,30.6,11.4,63.1&#10;&#9;&#9;&#9;c9.4,2.4,38.5,4.2,35.8-10.8c-4.9-27.4,0.6-48.3-2.1-57.7C523.1,730.5,478.2,732.6,480.1,743.8L480.1,743.8z"/>
		<path fill-rule="evenodd" clip-rule="evenodd" fill="#C73A46" d="M480.1,743.8c3.1,19,6.5,30.1,11.1,61c8.8,1.5,23.6,2.6,23.1-1.2&#10;&#9;&#9;&#9;c-2.2-17.7-1-54.7-1.8-69.7C498.6,732.9,478.9,736.3,480.1,743.8L480.1,743.8z"/>
	</g>
</g>
<g>
	<g>
		<path fill-rule="evenodd" clip-rule="evenodd" fill="#245BC9" d="M907.8,246.6c-101.5,99.1-319.8,145-416.4,148.1&#10;&#9;&#9;&#9;c-73.8,42.5-66.7,262.3,9.7,299.9c101.3-3.3,339.8,39.6,436,143.8c-0.3-0.4-0.6-0.9-0.8-1.3c-55.3-62-93.9-172.5-97.6-299.7&#10;&#9;&#9;&#9;C835.4,419.6,862.8,314,907.8,246.6L907.8,246.6z"/>
		<path fill-rule="evenodd" clip-rule="evenodd" fill="#1C50BA" d="M501.2,694.6c101.3-3.3,339.8,39.6,436,143.8&#10;&#9;&#9;&#9;c-0.3-0.4-0.6-0.9-0.8-1.3c-55.3-62-93.9-172.5-97.6-299.7c-1.5-51.2,2.9-100.1,12-144.5c-130.6,42.9-262.6,68.9-396.2,79.9&#10;&#9;&#9;&#9;C437,576.1,455.3,658.3,501.2,694.6L501.2,694.6z"/>
		<path fill-rule="evenodd" clip-rule="evenodd" fill="#18449E" d="M501.2,694.6c101.3-3.3,339.8,39.6,436,143.8&#10;&#9;&#9;&#9;c-0.3-0.4-0.6-0.9-0.8-1.3c-55.3-62-93.9-172.5-97.6-299.7c-0.2-7.6-0.3-15.1-0.3-22.6c-126.1,28.1-278.7,30.4-390.6,34.2&#10;&#9;&#9;&#9;C445.4,596,463.8,669.2,501.2,694.6L501.2,694.6z"/>
		<path fill-rule="evenodd" clip-rule="evenodd" fill="#103887" d="M501.2,694.6c101.3-3.3,339.8,39.6,436,143.8&#10;&#9;&#9;&#9;c-0.3-0.4-0.6-0.9-0.8-1.3c-33.7-37.9-61.3-93.8-78.5-160.6c-96.7-40-246-53.9-403.1-63.7C463,646.7,478.7,679.3,501.2,694.6&#10;&#9;&#9;&#9;L501.2,694.6z"/>
	</g>
	<g>
		<path fill-rule="evenodd" clip-rule="evenodd" fill="#245BC9" d="M229.5,658.8c-72.7-43-70.9-163.1-3.1-216.9&#10;&#9;&#9;&#9;c-13,29-21.6,67.8-20.2,110.1C207.6,593.5,216.3,630.9,229.5,658.8L229.5,658.8z"/>
		<path fill-rule="evenodd" clip-rule="evenodd" fill="#1C50BA" d="M229.5,658.8c-28.4-16.8-45.5-45.4-51.6-77.2&#10;&#9;&#9;&#9;c2.9-48.3,16.1-89.6,41.7-122.3l0,0c-9.1,26.4-14.5,58.4-13.4,92.8C207.6,593.5,216.3,630.9,229.5,658.8L229.5,658.8z"/>
		<path fill-rule="evenodd" clip-rule="evenodd" fill="#18449E" d="M229.5,658.8c-23.3-13.8-38.9-35.4-47.2-60.3&#10;&#9;&#9;&#9;c0.9-16.4,6.2-40.5,24.4-73.5c-0.6,8.8-0.7,17.8-0.5,27C207.6,593.5,216.3,630.9,229.5,658.8L229.5,658.8z"/>
		<path fill-rule="evenodd" clip-rule="evenodd" fill="#103887" d="M229.5,658.8c-19.3-11.4-33.4-28.3-42.3-47.9&#10;&#9;&#9;&#9;c8.9,3.5,18.4,6.4,28.4,8.6C219.3,634,224,647.3,229.5,658.8L229.5,658.8z"/>
	</g>
</g>
<g>
	<g>
		<g>
			<path fill-rule="evenodd" clip-rule="evenodd" fill="#FFFFFF" d="M277,390.2c33.4-1.1,190.8-4.2,215.7-5c8.7-0.3,17.2,2.6,25.2,8&#10;&#9;&#9;&#9;&#9;c-8.9,0.8-17.7,1.3-26.4,1.6c-73.8,42.5-66.7,262.3,9.7,299.9c8.7-0.3,17.6-0.3,26.5-0.1c-7.6,5.9-15.9,9.3-24.6,9.6&#10;&#9;&#9;&#9;&#9;c-24.9,0.8-190.8,4.2-215.7,5c-41.9,1.4-78.2-68.9-81.1-157C203.4,464.1,243.5,391.3,277,390.2L277,390.2z"/>
			<path fill-rule="evenodd" clip-rule="evenodd" fill="#B0C4ED" d="M355.7,388.3c56-1.3,121.6-2.7,137-3.1c8.7-0.3,17.2,2.6,25.2,8&#10;&#9;&#9;&#9;&#9;c-8.9,0.8-17.7,1.3-26.4,1.6c-73.8,42.5-66.7,262.3,9.7,299.9c8.7-0.3,17.6-0.3,26.5-0.1c-7.6,5.9-15.9,9.3-24.6,9.6&#10;&#9;&#9;&#9;&#9;c-24.9,0.8-190.8,4.2-215.7,5c-26.2,0.8-50.1-26.2-65.2-68.1l0,0c-14.3-104.5,7.9-190,48.9-238L355.7,388.3z"/>
			<path fill-rule="evenodd" clip-rule="evenodd" fill="#96AFE0" d="M440.4,516.9c-4.2,73.9,16.8,156,60.8,177.7&#10;&#9;&#9;&#9;&#9;c8.7-0.3,17.6-0.3,26.5-0.1c-7.6,5.9-15.9,9.3-24.6,9.6c-24.9,0.8-190.8,4.2-215.7,5c-53.5-33.7-73.4-99.9-57.7-200.7l194.1-7.1&#10;&#9;&#9;&#9;&#9;L440.4,516.9z"/>
			<path fill-rule="evenodd" clip-rule="evenodd" fill="#7B98D1" d="M449.1,612.8c9.8,38.3,27.3,69.6,52.1,81.9&#10;&#9;&#9;&#9;&#9;c8.7-0.3,17.6-0.3,26.5-0.1c-7.6,5.9-15.9,9.3-24.6,9.6c-24.9,0.8-190.8,4.2-215.7,5c-34.4-21.7-55-56.9-61-106.2l200.8-7.5&#10;&#9;&#9;&#9;&#9;L449.1,612.8z"/>
			<path fill-rule="evenodd" clip-rule="evenodd" fill="#FFFFFF" d="M492.7,385.1c8.7-0.3,17.2,2.6,25.2,8&#10;&#9;&#9;&#9;&#9;c-8.9,0.8-17.7,1.3-26.4,1.6c-73.8,42.5-66.7,262.3,9.7,299.9c8.7-0.3,17.6-0.3,26.5-0.1c-7.6,5.9-15.9,9.3-24.6,9.6&#10;&#9;&#9;&#9;&#9;c-41.9,1.4-78.2-68.9-81.1-157C419.1,459,450.8,386.5,492.7,385.1L492.7,385.1z"/>
		</g>
		<g>
			<path fill-rule="evenodd" clip-rule="evenodd" fill="#5471AB" d="M239.7,547.3l68.9-1.9c10.8-0.3,10.8,16,0,16.3l-68.9,1.9&#10;&#9;&#9;&#9;&#9;C229,563.9,229,547.6,239.7,547.3L239.7,547.3z M245.3,609.2l68.9-1.9c10.8-0.3,10.8,16,0,16.3l-68.9,1.9&#10;&#9;&#9;&#9;&#9;C234.5,625.8,234.5,609.5,245.3,609.2L245.3,609.2z M242,579.2l68.9-1.9c10.8-0.3,10.8,16,0,16.3l-68.9,1.9&#10;&#9;&#9;&#9;&#9;C231.2,595.8,231.2,579.5,242,579.2L242,579.2z"/>
			<path fill-rule="evenodd" clip-rule="evenodd" fill="#17336B" d="M315,548.2c3.6,4.6,1.4,13.3-6.4,13.5l-68.9,1.9&#10;&#9;&#9;&#9;&#9;c-1,0-2-0.1-2.9-0.3c-3.6-4.6-1.4-13.3,6.4-13.5l68.9-1.9C313.2,547.8,314.2,547.9,315,548.2L315,548.2z M248.8,611.6l68.9-1.9&#10;&#9;&#9;&#9;&#9;c1.1,0,2,0.1,2.9,0.3c3.6,4.6,1.5,13.3-6.4,13.5l-68.9,1.9c-1,0-2-0.1-2.9-0.4C238.8,620.5,241,611.8,248.8,611.6L248.8,611.6z&#10;&#9;&#9;&#9;&#9; M245.5,581.6l68.9-1.9c1,0,2,0.1,2.9,0.3c3.6,4.6,1.5,13.3-6.4,13.5l-68.9,1.9c-1,0-2-0.1-2.9-0.3&#10;&#9;&#9;&#9;&#9;C235.5,590.5,237.6,581.8,245.5,581.6L245.5,581.6z"/>
		</g>
	</g>
	<g>
		<path fill-rule="evenodd" clip-rule="evenodd" fill="#1C50BA" d="M271,403l191.3-3.1l4.2,20c22-0.8,49.8-4.8,59.5-7.5&#10;&#9;&#9;&#9;c8.9-22.5,24-22.4,30.4-23.9c-6.9-25.4-28-46.9-44.6-46.5L324,346.4C302.1,346.9,276.9,368.6,271,403L271,403z"/>
		<path fill-rule="evenodd" clip-rule="evenodd" fill="#18449E" d="M271,403l191.3-3.1l4.2,20c11.8-0.4,25.2-1.7,36.6-3.3&#10;&#9;&#9;&#9;c-36.9-33.5-66.2-70.6-183.2-66.7C296.9,357,282.1,377.1,271,403L271,403z"/>
		<path fill-rule="evenodd" clip-rule="evenodd" fill="#4276DE" d="M526,412.4c8.9-22.5,24-22.4,30.4-23.9&#10;&#9;&#9;&#9;c-6.9-25.4-28-46.9-44.6-46.5l-17.3,0.4C508.7,353.4,522.6,377.6,526,412.4L526,412.4z"/>
	</g>
	<g>
		<path fill-rule="evenodd" clip-rule="evenodd" fill="#1C50BA" d="M285.1,704.7l191.2-9.7l2.9-18.1c21.4-1.6,46.4-1.2,56.2,1.5&#10;&#9;&#9;&#9;c8.9,22.5,16.2,16.6,22.6,18.1c-3.6,30.9-14.5,48.2-30.6,48.7L333,751.5C311.1,752.2,295.9,731.9,285.1,704.7L285.1,704.7z"/>
		<path fill-rule="evenodd" clip-rule="evenodd" fill="#18449E" d="M285.1,704.7l191.2-9.7l2.9-18.1c7.7-0.6,15.9-0.9,23.7-0.9&#10;&#9;&#9;&#9;c-21,45.5-78.4,69.6-175.5,70.3C310.2,740,296.2,725.9,285.1,704.7L285.1,704.7z"/>
		<path fill-rule="evenodd" clip-rule="evenodd" fill="#4276DE" d="M535.4,678.4c6.3,15.9,17.1,17.5,22.6,18.1&#10;&#9;&#9;&#9;c-2.8,31-14.1,48.2-30.6,48.7l-6.8,0.2C528.3,740.2,538.1,728.6,535.4,678.4L535.4,678.4z"/>
	</g>
</g>
<g>
	<g>
		<path fill-rule="evenodd" clip-rule="evenodd" fill="#B0C4ED" d="M1021.6,170.6c106.7-3.9,197.8,154.1,203.5,352.7&#10;&#9;&#9;&#9;c5.7,198.7-76.1,362.9-182.8,366.8c-106.7,3.9-197.8-154-203.5-352.7C833,338.7,914.9,174.5,1021.6,170.6L1021.6,170.6z"/>
		<path fill-rule="evenodd" clip-rule="evenodd" fill="#FFFFFF" d="M1021.6,170.6c106.7-3.9,197.8,154.1,203.5,352.7&#10;&#9;&#9;&#9;c4.6,159.4-47.2,296.6-122.9,346.6c-15.3,8-31.4,12.6-48,13.2c-106.7,3.9-197.8-154-203.5-352.7C846,371,897.8,233.8,973.5,183.8&#10;&#9;&#9;&#9;C988.8,175.8,1004.8,171.2,1021.6,170.6L1021.6,170.6z"/>
	</g>
	<g>
		<path fill-rule="evenodd" clip-rule="evenodd" fill="#0B2F75" d="M1031.5,193.7c95.4-3.5,177,144.3,182.4,330&#10;&#9;&#9;&#9;c5.3,185.8-67.7,339.2-163,342.7c-95.4,3.5-177-144.3-182.4-330.1C863.1,350.6,936.1,197.2,1031.5,193.7L1031.5,193.7z"/>
		<path fill-rule="evenodd" clip-rule="evenodd" fill="#092763" d="M979.2,839.6C917.6,789.1,872.3,673,868.4,536.4&#10;&#9;&#9;&#9;c-4.1-141.1,37.1-263.6,98.9-315.8c8.3-2.9,16.8-4.6,25.5-4.9c89.1-3.3,165.5,134.9,170.4,308.5c5,173.6-63.2,317-152.4,320.3&#10;&#9;&#9;&#9;C1000.2,844.8,989.5,843.2,979.2,839.6L979.2,839.6z"/>
		<path fill-rule="evenodd" clip-rule="evenodd" fill="#072054" d="M937,790.9c-39.2-60.3-65.6-151.6-68.6-254.6&#10;&#9;&#9;&#9;c-3.1-107.5,20.1-204.1,58.6-267.2c70.5,5.6,129.4,117.1,133.4,256C1064.5,667.3,1009.5,785.1,937,790.9L937,790.9z"/>
		<path fill-rule="evenodd" clip-rule="evenodd" fill="#041947" d="M889.9,682.3c-12.3-43.9-19.9-93.4-21.5-146&#10;&#9;&#9;&#9;c-1.6-57,4.1-111,15.6-158.5c28,28.4,48,84.2,49.9,149C935.9,594,917.8,652.9,889.9,682.3L889.9,682.3z"/>
	</g>
	<g>
		<path fill-rule="evenodd" clip-rule="evenodd" fill="#FFFFFF" d="M909.6,520.3l217.5-5c6.1-0.1,5.8,17.8-0.3,18.2l-216.2,15.4&#10;&#9;&#9;&#9;C910,539.4,909.7,529.9,909.6,520.3L909.6,520.3z"/>
		<g>
			<path fill-rule="evenodd" clip-rule="evenodd" fill="#245BC9" d="M872.6,442.3c66,20,185.1,39,216.7,38&#10;&#9;&#9;&#9;&#9;c28.2,17,30.1,76.5,3.1,95.3c-31.7,1-150.4,28-214.7,52.3c-5.1-29-8.2-59.7-9.1-91.5C867.5,503.8,869,472.2,872.6,442.3&#10;&#9;&#9;&#9;&#9;L872.6,442.3z"/>
			<linearGradient id="SVGID_5_" gradientUnits="userSpaceOnUse" x1="868.1636" y1="557.1597" x2="1082.8815" y2="557.1597">
				<stop offset="0" style="stop-color:#103887"/>
				<stop offset="1" style="stop-color:#103887;stop-opacity:0"/>
			</linearGradient>
			<path fill-rule="evenodd" clip-rule="evenodd" fill="url(#SVGID_5_)" d="M876.2,619.4c-4.2-26.5-6.9-54.3-7.7-83.1&#10;&#9;&#9;&#9;&#9;c-0.4-14-0.3-27.9,0.1-41.5c34.6,8.7,178.5,44.3,214.3,78.9C1054.8,574.7,945.5,597.4,876.2,619.4L876.2,619.4z"/>
		</g>
		<g>
			<path fill-rule="evenodd" clip-rule="evenodd" fill="#FFFFFF" d="M1089.2,480.3c17.5-0.6,32.3,20.3,33.2,46.6&#10;&#9;&#9;&#9;&#9;c0.8,26.3-12.6,48.1-30.1,48.7c-17.5,0.6-32.3-20.3-33.1-46.6C1058.3,502.6,1071.8,480.8,1089.2,480.3L1089.2,480.3z"/>
			<path fill-rule="evenodd" clip-rule="evenodd" fill="#245BC9" d="M1095,491.3c12.9-0.4,23.9,15,24.5,34.4&#10;&#9;&#9;&#9;&#9;c0.6,19.4-9.3,35.5-22.2,35.9c-12.9,0.4-23.9-15-24.5-34.4C1072.1,507.8,1082,491.7,1095,491.3L1095,491.3z"/>
			<path fill-rule="evenodd" clip-rule="evenodd" fill="#18449E" d="M1097.6,498.5c10.3-0.3,19,11.9,19.5,27.4&#10;&#9;&#9;&#9;&#9;c0.5,15.4-7.4,28.2-17.7,28.6c-10.3,0.3-19-11.9-19.5-27.4C1079.4,511.6,1087.3,498.9,1097.6,498.5L1097.6,498.5z"/>
		</g>
		<path fill-rule="evenodd" clip-rule="evenodd" fill="#B0C4ED" d="M868.2,522.6l199.8-4.6c6.1-0.1,5.7,17.8-0.3,18.2L869,550.4&#10;&#9;&#9;&#9;c-0.2-4.7-0.4-9.3-0.6-14C868.3,531.8,868.2,527.2,868.2,522.6L868.2,522.6z"/>
	</g>
</g>
</svg>