<?xml version="1.0" encoding="utf-8"?>
<svg id="master-artboard" viewBox="0 0 841.9 595.3" version="1.1" xmlns="http://www.w3.org/2000/svg" x="0px" y="0px" width="841.9000244140625px" height="595.2999877929688px" enable-background="new 0 0 841.9 595.3">
<g transform="matrix(1, 0, 0, 1, 0, 0)">
			<path fill="#454747" d="M724.2,350.1L548,452.4v0c-13.2,7.6-34.5,7.6-47.8,0v0L117.8,231.6v-0.1c-6.7-3.8-10.1-8.9-10.1-13.9V259&#10;&#9;&#9;&#9;&#9;c0,5,3.3,10,9.9,13.9l0,0.1l382.6,220.9v0c13.3,7.7,34.7,7.7,47.9,0v0l176.2-102.4c6.5-3.8,9.8-8.8,9.8-13.7l0.1-41.3&#10;&#9;&#9;&#9;&#9;C734.2,341.3,730.8,346.3,724.2,350.1z"/>
			<path fill="#565757" d="M724.1,322.4L341.5,101.5c-13.3-7.7-34.7-7.6-47.8,0L117.5,203.9c-13.2,7.6-13.1,20,0.2,27.7l382.6,220.9&#10;&#9;&#9;&#9;&#9;c13.3,7.7,34.7,7.7,47.8,0l176.2-102.4C737.4,342.4,737.3,330,724.1,322.4z"/>
			<g>
				<path d="M 253.8000030517578 147.5 L 196.8000030517578 180.60000610351562 L 189.5 176.39999389648438 L 246.5 143.3000030517578 Z" fill="#454747"/>
			</g>
			<g>
				<path fill="#454747" d="M622.4,370.6c10.9,6.3,11,16.5,0.1,22.8c-10.9,6.3-28.5,6.3-39.5,0c-10.9-6.3-11-16.5-0.1-22.9&#10;&#9;&#9;&#9;&#9;&#9;C593.8,364.2,611.5,364.2,622.4,370.6z"/>
			</g>
			<path d="M 664.7999877929688 309.1000061035156 L 477.20001220703125 418.20001220703125 L 146.60000610351562 227.3000030517578 L 334.20001220703125 118.19999694824219 Z" fill="#FFFFFF"/>
			<g>
				<g enable-background="new    ">
					<g>
						<path d="M 199.1999969482422 292.70001220703125 L 199.1999969482422 315.3999938964844 L 193.10000610351562 318.8999938964844 L 193.1999969482422 296.20001220703125 Z" fill="#BCBEC0"/>
					</g>
					<g>
						<path d="M 193.1999969482422 296.20001220703125 L 193.10000610351562 318.8999938964844 L 128.1999969482422 281.3999938964844 L 128.3000030517578 258.70001220703125 Z" fill="#D1D3D4"/>
					</g>
					<g>
						<path d="M 199.1999969482422 292.70001220703125 L 193.1999969482422 296.20001220703125 L 128.3000030517578 258.70001220703125 L 134.3000030517578 255.1999969482422 Z" fill="#E6E7E8"/>
					</g>
				</g>
				<g enable-background="new    ">
					<g>
						<path d="M 282.70001220703125 340.8999938964844 L 282.6000061035156 363.6000061035156 L 276.6000061035156 367.1000061035156 L 276.6000061035156 344.3999938964844 Z" fill="#BCBEC0"/>
					</g>
					<g>
						<path d="M 276.6000061035156 344.3999938964844 L 276.6000061035156 367.1000061035156 L 211.6999969482422 329.6000061035156 L 211.6999969482422 306.8999938964844 Z" fill="#D1D3D4"/>
					</g>
					<g>
						<path d="M 282.70001220703125 340.8999938964844 L 276.6000061035156 344.3999938964844 L 211.6999969482422 306.8999938964844 L 217.8000030517578 303.3999938964844 Z" fill="#E6E7E8"/>
					</g>
				</g>
			</g>
			<g>
				<path fill="#D7DF23" d="M437.9,298.9c-5.7-3.3-5.8-8.7-0.1-12c5.7-3.3,15-3.3,20.7,0c5.7,3.3,5.8,8.7,0.1,12&#10;&#9;&#9;&#9;&#9;&#9;C452.9,302.2,443.6,302.2,437.9,298.9 M243,200.4l71.1-41.3l30.9,17.8l-40.4,23.5L243,200.4 M256.2,239.7l98.5-57.2l53,30.6&#10;&#9;&#9;&#9;&#9;&#9;l28.3,67.4c-1.9,0.6-3.7,1.4-5.4,2.3c-4,2.3-6.3,5.2-7,8.2l-68.7,5.7L256.2,239.7 M577.2,258.7l-6.8-3.9l0,0.7l0.2,44.5&#10;&#9;&#9;&#9;&#9;&#9;l-50.1,29.1l-50.6-29.2c4.1-4.3,4.1-9.6-0.1-14l76.4-44.4l0.6-0.3l-9.6-5.5l-0.6,0.3l-76.4,44.4c-3.5-1.1-7.2-1.7-11.1-1.8&#10;&#9;&#9;&#9;&#9;&#9;l-27.9-66.3l37-21.5l0.6-0.3l-9.6-5.5l-0.6,0.3l-34.9,20.3l-114.5-66.1l-0.6-0.3l-9.5,5.5l0.6,0.3l19.7,11.4l-75.9,44.1l-39.2,0&#10;&#9;&#9;&#9;&#9;&#9;l-1.2,0l-13.5,7.8h1.2l110.4,0l-88.1,51.2l-0.6,0.3l9.6,5.5l0.6-0.3l38.7-22.5l28.9,16.7l-38.7,22.5L241,282l4.8,2.8l0.6-0.3&#10;&#9;&#9;&#9;&#9;&#9;l38.7-22.5l61.4,35.5l-68,5.6l-1.1,0.1l12,6.9l1.1-0.1l135-11.2c0.3,0.4,0.6,0.8,1,1.2l-76.4,44.4l-0.6,0.3l9.6,5.5l0.6-0.3&#10;&#9;&#9;&#9;&#9;&#9;l76.4-44.4c7.5,2.4,16.7,2.4,24.2,0l6.8,3.9l-35,82.3l-0.2,0.6l11.2,6.5l0.2-0.6l15.3-36l57.2,33l0.6,0.3l4.8-2.8l-0.6-0.3&#10;&#9;&#9;&#9;&#9;&#9;l-60.1-34.7l17.8-41.8l87.3,50.4l0.6,0.3l9.5-5.5l-0.6-0.3l-45-26l44-25.6l45,26l0.6,0.3l9.5-5.5l-0.6-0.3L577.4,300l-0.2-40.6&#10;&#9;&#9;&#9;&#9;&#9;L577.2,258.7"/>
				<path fill="#8CC63F" d="M458.5,286.9c-5.7-3.3-15-3.3-20.7,0c-5.7,3.3-5.7,8.7,0.1,12c5.7,3.3,15,3.3,20.7,0&#10;&#9;&#9;&#9;&#9;&#9;C464.3,295.6,464.3,290.2,458.5,286.9"/>
				<path fill="#44C8F5" d="M366.5,204.2c-6.6-3.8-17.2-3.8-23.8,0l-48.2,28c-6.5,3.8-6.5,10,0.1,13.8l13.2,7.6&#10;&#9;&#9;&#9;&#9;&#9;c7.9,4.5,21,3.5,26.5-2.1l34.9-35.6C373.1,212.1,371.9,207.3,366.5,204.2"/>
				<path d="M 588.400024 326.299988 L 574 318 L 559.700012 326.299988 L 574.099976 334.600006 L 588.400024 326.299988" fill="#E8457A"/>
			</g>
		</g><g opacity="0.5" transform="matrix(1, 0, 0, 1, 0, 0)">
				<path fill="#00A79D" d="M474,208c-27.1-15.6-70.8-15.6-97.7,0c-26.9,15.6-26.8,41,0.3,56.6c27.1,15.6,70.8,15.6,97.7,0&#10;&#9;&#9;&#9;&#9;&#9;C501.2,248.9,501,223.6,474,208"/>
			</g><path fill="#ED1C24" d="M403.6,148L403.6,148c-9.4,9.4-11.7,23.9-5.5,35.8l27.2,52.5l27.2-52.5c6.1-11.9,3.9-26.3-5.5-35.8l0,0&#10;&#9;&#9;&#9;&#9;&#9;C435,136,415.6,136,403.6,148z" transform="matrix(1, 0, 0, 1, 0, 0)"/><path d="M 441.099988 169.300003 A 15.8 15.8 0 0 1 425.299988 185.100003 A 15.8 15.8 0 0 1 409.499988 169.300003 A 15.8 15.8 0 0 1 425.299988 153.500003 A 15.8 15.8 0 0 1 441.099988 169.300003 Z" fill="#FFFFFF" transform="matrix(1, 0, 0, 1, 0, 0)"/><path fill="#A97C50" d="M502.1,136.3c0,13.2,0,26.3,0,39.5c2.9,1.5,6.4,1.5,9.3,0c0-13.2,0-26.3,0-39.5&#10;&#9;&#9;&#9;C508.5,134.8,505,134.8,502.1,136.3z" transform="matrix(1, 0, 0, 1, 0, 0)"/><path d="M 540.799988 122.099998 A 34 34 0 0 1 506.799988 156.099998 A 34 34 0 0 1 472.799988 122.099998 A 34 34 0 0 1 506.799988 88.099998 A 34 34 0 0 1 540.799988 122.099998 Z" fill="#A5BB29" transform="matrix(1, 0, 0, 1, 0, 0)"/><path d="M 507.300006 110.900002 A 11.7 11.7 0 0 1 495.600006 122.600001 A 11.7 11.7 0 0 1 483.900006 110.900002 A 11.7 11.7 0 0 1 495.600006 99.200002 A 11.7 11.7 0 0 1 507.300006 110.900002 Z" fill="#D7DF23" transform="matrix(1, 0, 0, 1, 0, 0)"/><path fill="#A97C50" d="M577.1,106.3c0,13.2,0,26.3,0,39.5c2.9,1.5,6.4,1.5,9.3,0c0-13.2,0-26.3,0-39.5&#10;&#9;&#9;&#9;C583.5,104.8,580,104.8,577.1,106.3z" transform="matrix(1, 0, 0, 1, 0, 0)"/><path d="M 615.799988 92.099998 A 34 34 0 0 1 581.799988 126.099998 A 34 34 0 0 1 547.799988 92.099998 A 34 34 0 0 1 581.799988 58.099998 A 34 34 0 0 1 615.799988 92.099998 Z" fill="#A5BB29" transform="matrix(1, 0, 0, 1, 0, 0)"/><path d="M 582.299975 80.900002 A 11.7 11.7 0 0 1 570.599976 92.600001 A 11.7 11.7 0 0 1 558.899976 80.900002 A 11.7 11.7 0 0 1 570.599976 69.200002 A 11.7 11.7 0 0 1 582.299975 80.900002 Z" fill="#D7DF23" transform="matrix(1, 0, 0, 1, 0, 0)"/><path fill="#A97C50" d="M652.1,150.5c0,13.2,0,26.3,0,39.5c2.9,1.5,6.4,1.5,9.3,0c0-13.2,0-26.3,0-39.5&#10;&#9;&#9;&#9;C658.5,149,655,149,652.1,150.5z" transform="matrix(1, 0, 0, 1, 0, 0)"/><path d="M 690.799988 136.199997 A 34 34 0 0 1 656.799988 170.199997 A 34 34 0 0 1 622.799988 136.199997 A 34 34 0 0 1 656.799988 102.199997 A 34 34 0 0 1 690.799988 136.199997 Z" fill="#A5BB29" transform="matrix(1, 0, 0, 1, 0, 0)"/><path d="M 657.299975 125.099998 A 11.7 11.7 0 0 1 645.599976 136.799998 A 11.7 11.7 0 0 1 633.899976 125.099998 A 11.7 11.7 0 0 1 645.599976 113.399999 A 11.7 11.7 0 0 1 657.299975 125.099998 Z" fill="#D7DF23" transform="matrix(1, 0, 0, 1, 0, 0)"/><path fill="#A97C50" d="M577.1,180.7c0,13.2,0,26.3,0,39.5c2.9,1.5,6.4,1.5,9.3,0c0-13.2,0-26.3,0-39.5&#10;&#9;&#9;&#9;C583.5,179.3,580,179.3,577.1,180.7z" transform="matrix(1, 0, 0, 1, 0, 0)"/><path d="M 615.799988 166.5 A 34 34 0 0 1 581.799988 200.5 A 34 34 0 0 1 547.799988 166.5 A 34 34 0 0 1 581.799988 132.5 A 34 34 0 0 1 615.799988 166.5 Z" fill="#A5BB29" transform="matrix(1, 0, 0, 1, 0, 0)"/><path d="M 582.299975 155.300003 A 11.7 11.7 0 0 1 570.599976 167.000003 A 11.7 11.7 0 0 1 558.899976 155.300003 A 11.7 11.7 0 0 1 570.599976 143.600003 A 11.7 11.7 0 0 1 582.299975 155.300003 Z" fill="#D7DF23" transform="matrix(1, 0, 0, 1, 0, 0)"/><path fill="#A97C50" d="M141.9,366.3c0,13.2,0,26.3,0,39.5c2.9,1.5,6.4,1.5,9.3,0c0-13.2,0-26.3,0-39.5&#10;&#9;&#9;&#9;C148.3,364.8,144.8,364.8,141.9,366.3z" transform="matrix(1, 0, 0, 1, 0, 0)"/><path d="M 180.600006 352 A 34 34 0 0 1 146.600006 386 A 34 34 0 0 1 112.600006 352 A 34 34 0 0 1 146.600006 318 A 34 34 0 0 1 180.600006 352 Z" fill="#A5BB29" transform="matrix(1, 0, 0, 1, 0, 0)"/><path d="M 147.099994 340.799988 A 11.7 11.7 0 0 1 135.399994 352.499988 A 11.7 11.7 0 0 1 123.699994 340.799988 A 11.7 11.7 0 0 1 135.399994 329.099988 A 11.7 11.7 0 0 1 147.099994 340.799988 Z" fill="#D7DF23" transform="matrix(1, 0, 0, 1, 0, 0)"/><path fill="#A97C50" d="M210.1,408.8c0,13.2,0,26.3,0,39.5c2.9,1.5,6.4,1.5,9.3,0c0-13.2,0-26.3,0-39.5&#10;&#9;&#9;&#9;C216.5,407.3,213,407.3,210.1,408.8z" transform="matrix(1, 0, 0, 1, 0, 0)"/><path d="M 248.699997 394.600006 A 34 34 0 0 1 214.699997 428.600006 A 34 34 0 0 1 180.699997 394.600006 A 34 34 0 0 1 214.699997 360.600006 A 34 34 0 0 1 248.699997 394.600006 Z" fill="#A5BB29" transform="matrix(1, 0, 0, 1, 0, 0)"/><path d="M 215.300006 383.399994 A 11.7 11.7 0 0 1 203.600006 395.099994 A 11.7 11.7 0 0 1 191.900006 383.399994 A 11.7 11.7 0 0 1 203.600006 371.699994 A 11.7 11.7 0 0 1 215.300006 383.399994 Z" fill="#D7DF23" transform="matrix(1, 0, 0, 1, 0, 0)"/><path fill="#A97C50" d="M285.6,447.4c0,13.2,0,26.3,0,39.5c2.9,1.5,6.4,1.5,9.3,0c0-13.2,0-26.3,0-39.5&#10;&#9;&#9;&#9;C292,445.9,288.5,445.9,285.6,447.4z" transform="matrix(1, 0, 0, 1, 0, 0)"/><path d="M 324.299988 433.100006 A 34 34 0 0 1 290.299988 467.100006 A 34 34 0 0 1 256.299988 433.100006 A 34 34 0 0 1 290.299988 399.100006 A 34 34 0 0 1 324.299988 433.100006 Z" fill="#A5BB29" transform="matrix(1, 0, 0, 1, 0, 0)"/><path d="M 290.800006 422 A 11.7 11.7 0 0 1 279.100006 433.7 A 11.7 11.7 0 0 1 267.400006 422 A 11.7 11.7 0 0 1 279.100006 410.3 A 11.7 11.7 0 0 1 290.800006 422 Z" fill="#D7DF23" transform="matrix(1, 0, 0, 1, 0, 0)"/><path fill="#A97C50" d="M652.1,225.2c0,13.2,0,26.3,0,39.5c2.9,1.5,6.4,1.5,9.3,0c0-13.2,0-26.3,0-39.5&#10;&#9;&#9;&#9;C658.5,223.7,655,223.7,652.1,225.2z" transform="matrix(1, 0, 0, 1, 0, 0)"/><path d="M 690.799988 210.899994 A 34 34 0 0 1 656.799988 244.899994 A 34 34 0 0 1 622.799988 210.899994 A 34 34 0 0 1 656.799988 176.899994 A 34 34 0 0 1 690.799988 210.899994 Z" fill="#A5BB29" transform="matrix(1, 0, 0, 1, 0, 0)"/><path d="M 657.299975 199.699997 A 11.7 11.7 0 0 1 645.599976 211.399997 A 11.7 11.7 0 0 1 633.899976 199.699997 A 11.7 11.7 0 0 1 645.599976 187.999997 A 11.7 11.7 0 0 1 657.299975 199.699997 Z" fill="#D7DF23" transform="matrix(1, 0, 0, 1, 0, 0)"/><path fill="#A97C50" d="M127.8,447.4c0,13.2,0,26.3,0,39.5c2.9,1.5,6.4,1.5,9.3,0c0-13.2,0-26.3,0-39.5&#10;&#9;&#9;&#9;C134.2,445.9,130.7,445.9,127.8,447.4z" transform="matrix(1, 0, 0, 1, 0, 0)"/><path d="M 166.399994 433.100006 A 34 34 0 0 1 132.399994 467.100006 A 34 34 0 0 1 98.399994 433.100006 A 34 34 0 0 1 132.399994 399.100006 A 34 34 0 0 1 166.399994 433.100006 Z" fill="#A5BB29" transform="matrix(1, 0, 0, 1, 0, 0)"/><path d="M 133.000003 422 A 11.7 11.7 0 0 1 121.300003 433.7 A 11.7 11.7 0 0 1 109.600003 422 A 11.7 11.7 0 0 1 121.300003 410.3 A 11.7 11.7 0 0 1 133.000003 422 Z" fill="#D7DF23" transform="matrix(1, 0, 0, 1, 0, 0)"/><path fill="#A97C50" d="M202.8,491.6c0,13.2,0,26.3,0,39.5c2.9,1.5,6.4,1.5,9.3,0c0-13.2,0-26.3,0-39.5&#10;&#9;&#9;&#9;C209.2,490.1,205.7,490.1,202.8,491.6z" transform="matrix(1, 0, 0, 1, 0, 0)"/><path d="M 241.399994 477.299988 A 34 34 0 0 1 207.399994 511.299988 A 34 34 0 0 1 173.399994 477.299988 A 34 34 0 0 1 207.399994 443.299988 A 34 34 0 0 1 241.399994 477.299988 Z" fill="#A5BB29" transform="matrix(1, 0, 0, 1, 0, 0)"/><path d="M 208.000003 466.200012 A 11.7 11.7 0 0 1 196.300003 477.900012 A 11.7 11.7 0 0 1 184.600003 466.200012 A 11.7 11.7 0 0 1 196.300003 454.500012 A 11.7 11.7 0 0 1 208.000003 466.200012 Z" fill="#D7DF23" transform="matrix(1, 0, 0, 1, 0, 0)"/>
</svg>