<svg id="Layer_10" data-name="Layer 10" xmlns="http://www.w3.org/2000/svg" viewBox="0 0 1080 1080"><defs><style>.cls-1{opacity:0.75;}</style></defs><title>sitlogoArtboard 1</title><path d="M556.06,927.9c-3-1.47-6.46-2.37-8.86-4.5-28.67-25.42-45.46-55.79-38.4-95.55,2.09-11.76,4.12-23.61,7.48-35,5.81-19.74.25-36.72-11-52.57a110.82,110.82,0,0,0-13-15.13,13.07,13.07,0,0,1-4.19-9.59,100.84,100.84,0,0,0-1.82-16.88c-.42,5.44-.44,11-1.37,16.3-1,5.92.79,10.85,3.75,15C465,745.47,452.24,767.19,448,794.36c-1.05,6.81.4,12.53,6.77,16.3a17,17,0,0,1,3.8,3.23c2.35,2.54,2,4.36-1.22,6.23-4.93,2.89-10,5.85-14.2,9.66-11.07,10-32.48,5.69-39.68-9.07-8.18-16.78-7.21-36.8,14.79-46.4C432.88,768,446,760.18,456.57,748.1c17.29-19.67,26.92-42.41,27.05-68.5.06-11.55-2.7-23.09-4-34.66-2.28-20.49-4.65-41-6.56-61.52-2.45-26.17-4.51-52.38-6.67-78.58-.58-7-1.08-13.94-1.29-20.92,0-1.58,1.27-3.21,2-4.81.94,1.38,2.43,2.65,2.73,4.15,3.84,19.56,7.48,39.15,11.22,58.72,5.06,26.53,10.15,53,16,79.74,2-6.09,4-12.17,5.91-18.27,2.57-8.06,5-16.18,7.76-24.16a8.91,8.91,0,0,1,4-4.29c4.78-2.59,9.78-4.76,15.38-7.42-5.49,33.55-10.88,66.46-16.26,99.36l-.74.2q-2.22-7.07-4.43-14.12c4.55,32,3.39,64.71,12.13,96.14,1.83,6.56,2.91,13.31,10.49,16.4,3,1.23,1.32,3.91,0,5.91-6.58,9.78-8.6,20.69-8.23,32.28.12,4.1,1.79,6.5,5.66,7.7,5.38,1.67,10.81,3.26,16,5.33,20.76,8.24,25.3,27.28,10.07,43.67-5.86,6.3-12.76,11.67-19.41,17.19-7.24,6-8.08,8.08-4.31,16.62,4.88,11,13.15,19.51,21.73,27.7,1.47,1.4,2.82,2.95,4.22,4.43Zm-39.67-89.59-.91.36c2.17,10.33,4.24,20.68,6.56,31,.74,3.3,3.09,4.78,6.41,3.27,12-5.45,22-13.08,27.59-25.42,3.2-7.15,2-12.8-3.83-18-8-7.16-17.7-10.22-28.1-11.61-3.34-.45-5.06,1.08-5.52,4.19C517.79,827.46,517.11,832.89,516.39,838.31Zm-73.3-50c.16-8.74-1.58-10.38-8.72-9.71-1.33.12-2.65.24-4,.4-12.11,1.46-20.69,8.74-23,19.51-2.85,13.18,5.22,25.89,17.86,28.14,11.48,2.05,20.13-7.29,17.85-18.67-1-4.76-.58-9.81-.6-14.73A30,30,0,0,1,443.09,788.32ZM487.71,671c2.22,4.29,6.05,5.75,10.57,4.79,4.07-.86,6.86-3.42,7.81-8.49C500,675.49,495,676.31,487.71,671Zm17.73,61.73-1.19.71,12.38,20.92,1.2-.72Z"/><path d="M490.87,582.42a50.22,50.22,0,0,1-1.62-7.71c-.07-1,1.26-2.55,2.31-3,41.44-16.1,77.27-40.81,108.94-71.64,26.69-26,50.94-54.1,68.9-87a98.66,98.66,0,0,0,9.59-26c2.42-11.06-2.69-18.86-13.17-23.45-10.93-4.79-22.66-5.73-34.25-5.42-24,.64-47.87,2.39-71.81,3.34-20.63.81-41.32,1.65-61.56-3.74-16.25-4.33-29.08-12.92-30.64-31.1a75.83,75.83,0,0,1,2.79-26.56c20.71-72.84,68.13-119,141-138.75a85.81,85.81,0,0,1,40.09-1.6c21.41,4.43,31.27,20.09,26,41.38-5.51,22.11-19.29,38.8-36,53.28-12.21,10.55-25.77,18.85-41.94,21.93a27.07,27.07,0,0,1-7.21.25c14.2-4.18,27.35-10.26,39.09-19.23,21.95-16.79,34.53-39.22,39.31-66.12,2.34-13.2-7-23.54-22-25.4-18.76-2.34-36.41,2.29-53.47,9.13-42.58,17.06-77.47,43.75-101.38,83.5-10.86,18-18.08,37.52-18.72,58.75-.65,21.46,10.13,33.82,31.28,37.67,15.25,2.78,30.51,2.06,45.76.45,29.27-3.09,58.48-6.76,87.79-9.29,8.77-.75,18,.52,26.64,2.63,15.31,3.74,22.12,15.32,20,30.9-3.25,23.46-13.63,44-26.13,63.6A332.82,332.82,0,0,1,606.55,508c-32.51,30.24-68.19,55.79-109.68,72.52-1.38.55-2.79,1.06-4.2,1.55A13.38,13.38,0,0,1,490.87,582.42Z"/><path d="M517.73,556.41q5.73-18.43,11.45-36.88c1.87-6,3.65-12,5.84-17.94.55-1.47,2.56-2.4,3.9-3.57.69,1.63,2.19,3.39,2,4.89-2.22,14.41-4.67,28.79-7.21,43.15a6.63,6.63,0,0,1-2.5,4c-4,2.59-8.25,4.8-12.41,7.16Z"/><path d="M527.84,430.17a41.83,41.83,0,0,0-11.3-1.58c-17-.12-33.22,4.11-48.92,10.43-30.4,12.23-58.66,27.73-80.34,53.12-9.91,11.61-18,24.37-18.19,40.1-.31,24.25,12.44,41.26,32.77,52.65,17.83,10,37.34,9.7,56.9,6.51,1.64-.27,2.94-.48,4-.62h0s7.43-2,8.34-3.77c-.24-2.67-.5-5.32-.85-8-.09-.68-.2-1.36-.33-2h0l-7.22,2.78c-16.38,4.78-40.43,5.84-55.56-.68-10.21-4.4-17.72-11.38-17.94-23-.16-8.88.41-18.15,2.79-26.65,10.16-36.43,33.09-63.26,65.23-82.3,15.06-8.93,31.59-12.83,49.33-10.26,16,2.32,23,12.79,18.53,28.5-.66,2.35-1.42,4.67-2.14,7,7-7.69,13.12-15.92,14.93-26.33C539.3,438,535.81,432.5,527.84,430.17Z"/><g class="cls-1"><path d="M516.15,672.57l5.35,10.22,163.44-77.22c-3.24-7-6.28-13.56-9.38-20.13q-20.87-44.19-41.77-88.37c-4-8.48-4-8.48,3.52-15.64,5,10.47,9.81,20.76,14.67,31.06q28.65,60.64,57.3,121.3c4,8.57,1.8,14.66-6.8,18.72L548.27,725.37c-10,4.72-15.45,2.81-20.12-7.06-3.27-6.91-6.51-13.83-9.79-20.74C514.4,689.24,513.77,683.19,516.15,672.57ZM609.09,686a18.1,18.1,0,0,0,17.71-17.43c.19-9.26-8-17.6-17.42-17.73a17.58,17.58,0,1,0-.29,35.16Z"/><path d="M465.29,330.17l3.17,10.36-88.89,42.06,37,78.84-7.63,5c-1.66-3.65-3.11-6.93-4.64-10.18q-16-33.83-31.93-67.64c-3.54-7.54-1.39-14,6-17.49q42.35-20.13,84.78-40.06C463.73,330.78,464.34,330.56,465.29,330.17Z"/><path d="M575,349.94c-2.22.28-3.88.36-5.48.72-3.45.77-5.28-.42-6.79-3.78-5.67-12.58-11.71-25-17.63-37.46-.56-1.17-1.21-2.3-2.12-4l-62.66,29.54-1.68-4.63c-1.44-3.95-.88-6.42,3.62-8.45,17.58-7.93,34.9-16.42,52.36-24.62,8.9-4.18,14.62-2.17,18.77,6.54,6.93,14.56,13.77,29.17,20.64,43.76C574.29,348.12,574.51,348.74,575,349.94Z"/><path d="M629.7,465.48l-7.46,7.82L571.05,364.13c9.62-2,10-1.84,13.75,6.09q21.69,46,43.39,92C628.68,463.22,629.15,464.28,629.7,465.48Z"/><path d="M426.16,481.63c-.66-1.4-1.41-2.75-2.5-4.88-1.64,4.12-7.16,5.2-4.75,10.31Q433,516.82,447,546.59c4.24,9,8.5,18,12.84,27.13l7.86-4.14Q447.06,525.54,426.16,481.63Z"/><path d="M467.34,591.53h0c1.05.85,2,2.42,3.52,5.06.12.21.56.23,1.1.44q-.27-3.15-.52-6.25Z"/></g></svg>