<?xml version="1.0" encoding="utf-8"?>
<svg id="master-artboard" viewBox="0 0 1400 980" version="1.1" xmlns="http://www.w3.org/2000/svg" x="0px" y="0px" style="enable-background:new 0 0 1400 980;" width="1400px" height="980px">



<linearGradient id="SVGID_1_" gradientUnits="userSpaceOnUse" x1="880.9793" y1="368.3926" x2="1284.0074" y2="770.7404">
	<stop offset="0" style="stop-color:#006838"/>
	<stop offset="0.3227" style="stop-color:#009444;stop-opacity:0.6344"/>
	<stop offset="1" style="stop-color:#2484C6;stop-opacity:0"/>
</linearGradient>


<linearGradient id="SVGID_2_" gradientUnits="userSpaceOnUse" x1="215.3387" y1="428.0843" x2="683.5653" y2="748.0056">
	<stop offset="0" style="stop-color:#1C75BC"/>
	<stop offset="0.3227" style="stop-color:#27AAE1;stop-opacity:0.6344"/>
	<stop offset="1" style="stop-color:#2484C6;stop-opacity:0"/>
</linearGradient>

<g transform="matrix(1.0261011123657227, 0, 0, 1.0261011123657227, -410.26256400004064, 41.262920120789175)">
	<path class="st4" d="M922.8,714.6l-74.8,59.3c0,0-2.2,22.7,23.9,8.6l4.6-3l61.3-31.2c0,0,30.3-7.8,43.6-13&#10;&#9;&#9;c13.3-5.2,28.8-20.5,28.8-20.5l-4.4-10L922.8,714.6z" style="fill: rgb(225, 184, 159);"/>
	<path class="st5" d="M915.3,720.7l87.6,0.8l7.3-6.6c0,0,3.8-12.2,3.1-12.9c-0.7-0.7-4.4-6.3-10.1-8.1c-5.7-1.8-60.3-6.5-60.3-6.5&#10;&#9;&#9;l-19.9,27.3L915.3,720.7z" style="fill: rgb(217, 165, 142);"/>
	<path class="st5" d="M873.9,781.2c0,0-24.7,0.6-24.9,0c-0.2-0.6-1.2-3.9-1-7.3l28.5,5.6L873.9,781.2z" style="fill: rgb(217, 165, 142);"/>
	<path class="st6" d="M1164.9,730.1l-103.8-26.3c0,0-11.1-4.7-15-3.9c-3.9,0.7-17.7,12.5-23.4,14c-5.7,1.5-106.8,3.7-111.4,4.9&#10;&#9;&#9;c-4.7,1.2-19.4,17-20.4,18.7c-1,1.7-1,11.1,0,11.6c1,0.5,19.9-7.1,24.8-5.9c4.9,1.2,8.9,4.7,8.9,4.7s7.1-2.2,11.3-0.5&#10;&#9;&#9;c4.2,1.7,10.6,6.6,10.1,9.3c-0.5,2.7-46,25.3-49.9,25.8c-3.9,0.5-48-8.6-48-8.6s-19.5-3.9-20-14.5c0,0-14.9-7.4-9.6-25.1&#10;&#9;&#9;c0,0-9.8-7-10-13.3c-0.2-6.3,33.2-44.8,33.2-44.8s6.2-20.2,15-26.1c8.9-5.9,170.2-24.8,181.3-25.6l126.9,9.3V730.1z" style="fill: rgb(233, 198, 179);"/>
	<path class="st7" d="M938.8,748.9c0,0-7.4-0.8-9.7,0c-2.4,0.8-29.9,10-29.9,10s-5.7,0.6-7.6-1.1c-1.8-1.7-6.6-5-6.6-5&#10;&#9;&#9;s-0.8-10.4,2.9-14.8c0,0-2.9,12.2-2,14.1c0,0,5.3,2.3,6.3,3.3c1,0.9,6.1-0.3,6.9-0.3c0.7,0,21.8-6.4,25.5-7.3&#10;&#9;&#9;C928.3,747,934.8,745.2,938.8,748.9z" style="fill: rgb(215, 175, 152);"/>
	<path class="st7" d="M889.5,778.3c0,0-30.6-9-36-15.2c-5.4-6.1,7.9-56.6,7.9-56.6S846,758.4,848,764.1&#10;&#9;&#9;C850,769.7,881.6,779,889.5,778.3z" style="fill: rgb(215, 175, 152);"/>
	<path d="M 828 759.5 L 856.2000122070312 668.4000244140625 L 825.9000244140625 758.0999755859375 Z" class="st7" style="fill: rgb(215, 175, 152);"/>
	<path d="M 818.4000244140625 734.4000244140625 L 841 680 L 816.4000244140625 732.7999877929688 Z" class="st7" style="fill: rgb(215, 175, 152);"/>
	<path d="M 1121.0999755859375 630.7000122070312 L 1112.4000244140625 716.7999877929688 L 1130.5 721.4000244140625 L 1136.9000244140625 631.9000244140625 Z" class="st8" style="fill: rgb(219, 180, 156);"/>
	<path d="M 1066.4000244140625 629 L 1090.699951171875 629 L 1090.699951171875 713.9000244140625 L 1066.4000244140625 707.2000122070312 Z" class="st9" style="fill: rgb(139, 96, 60);"/>
	<path class="st10" d="M1039,620.7v8.3c0,3.1,17.7,5.5,39.5,5.5s39.5-2.5,39.5-5.5v-8.3H1039z" style="fill: rgb(99, 60, 25);"/>
	<path d="M 1145.699951171875 625.7999877929688 L 1124.699951171875 627.7000122070312 L 1127.5 734.4000244140625 L 1192.9000244140625 742.4000244140625 L 1184.0999755859375 627.7000122070312 Z" class="st11" style="fill: rgb(154, 153, 156);"/>
	<path d="M 1129.5 615.2000122070312 L 1140.800048828125 759.5 L 1400 773.9000244140625 L 1400 615.2000122070312 Z" class="st12" style="fill: rgb(165, 174, 173);"/>
	<path d="M 1137.199951171875 713.9000244140625 L 1400 726 L 1400 773.9000244140625 L 1140.800048828125 759.5 Z" class="st13" style="fill: rgb(138, 150, 150);"/>
	<path d="M 1203.200025 730.700012 A 6.8 6.8 0 0 1 1196.400024 737.500012 A 6.8 6.8 0 0 1 1189.600024 730.700012 A 6.8 6.8 0 0 1 1196.400024 723.900012 A 6.8 6.8 0 0 1 1203.200025 730.700012 Z" class="st14" style="fill: rgb(255, 255, 255);"/>
	<path d="M 1246.8 733.599976 A 6.8 6.8 0 0 1 1240 740.399976 A 6.8 6.8 0 0 1 1233.2 733.599976 A 6.8 6.8 0 0 1 1240 726.799975 A 6.8 6.8 0 0 1 1246.8 733.599976 Z" class="st14" style="fill: rgb(255, 255, 255);"/>
	<path d="M 1291.200025 737.5 A 6.8 6.8 0 0 1 1284.400024 744.3 A 6.8 6.8 0 0 1 1277.600024 737.5 A 6.8 6.8 0 0 1 1284.400024 730.7 A 6.8 6.8 0 0 1 1291.200025 737.5 Z" class="st14" style="fill: rgb(255, 255, 255);"/>
	<path d="M 1118 620.700012 A 39.5 5.5 0 0 1 1078.5 626.200012 A 39.5 5.5 0 0 1 1039 620.700012 A 39.5 5.5 0 0 1 1078.5 615.200012 A 39.5 5.5 0 0 1 1118 620.700012 Z" class="st15" style="fill: rgb(137, 79, 46);"/>
	<path d="M 1114.299999 621.299988 A 35.799999 4 0 0 1 1078.5 625.299988 A 35.799999 4 0 0 1 1042.700001 621.299988 A 35.799999 4 0 0 1 1078.5 617.299988 A 35.799999 4 0 0 1 1114.299999 621.299988 Z" class="st14" style="fill: rgb(255, 255, 255);"/>
	<g>
		<path class="st16" d="M1078.5,203c-66.8,0-121,54.2-121,121c0-63.6,51.5-115.1,115.1-115.1c63.6,0,115.1,51.5,115.1,115.1&#10;&#9;&#9;&#9;c0,63.6-51.5,115.1-115.1,115.1c-63.6,0-115.1-51.5-115.1-115.1c0,66.8,54.2,121,121,121c66.8,0,121-54.2,121-121&#10;&#9;&#9;&#9;C1199.6,257.2,1145.4,203,1078.5,203z" style="fill: rgb(203, 146, 43);"/>
		<path d="M 1187.699974 324.100006 A 115.099998 115.099998 0 0 1 1072.599976 439.200005 A 115.099998 115.099998 0 0 1 957.499977 324.100006 A 115.099998 115.099998 0 0 1 1072.599976 209.000008 A 115.099998 115.099998 0 0 1 1187.699974 324.100006 Z" class="st17" style="fill: rgb(237, 178, 52);"/>
		<path class="st18" d="M1082.5,312.5c-18.1-5.5-22-8.3-22-15.9c0-7.7,12.3-9.7,19.6-9.7c6.9,0,15.1,2.2,20,5.3&#10;&#9;&#9;&#9;c1.9,1.3,4.5,0.7,5.8-1.3l9.2-14.2c1.3-2,0.7-4.6-1.3-5.8c-6.8-4.4-15.6-7.5-24.8-8.8v-8.7c0-2.3-1.9-4.2-4.2-4.2h-16.9&#10;&#9;&#9;&#9;c-2.3,0-4.2,1.9-4.2,4.2v10.1c-17.7,4.7-28.5,17.1-28.5,33c0,28,24,35.3,39.9,40.1c17.1,5.2,20.5,7.5,20.5,14c0,7.1-11.8,9-18.7,9&#10;&#9;&#9;&#9;c-8.5,0-18.1-3.8-23.3-9.3c-0.8-0.8-1.8-1.3-2.9-1.3c-1.1,0-2.2,0.4-3,1.1l-12.3,11.6c-1.7,1.6-1.8,4.3-0.2,6&#10;&#9;&#9;&#9;c7.2,7.5,17.4,13.2,28.5,15.7v9.6c0,2.3,1.9,4.2,4.2,4.2h16.9c2.3,0,4.2-1.9,4.2-4.2V384c19.5-3.7,31.9-16.4,31.9-33.2&#10;&#9;&#9;&#9;C1121.2,324.3,1097.9,317.2,1082.5,312.5z" style="fill-rule: evenodd; clip-rule: evenodd; fill: rgb(160, 114, 42);"/>
		<path class="st19" d="M1078.5,178.2c-80.5,0-145.8,65.3-145.8,145.8c0,80.5,65.3,145.8,145.8,145.8c80.5,0,145.8-65.3,145.8-145.8&#10;&#9;&#9;&#9;C1224.4,243.5,1159.1,178.2,1078.5,178.2z M1078.5,440.3c-64.2,0-116.2-52-116.2-116.2c0-64.2,52-116.2,116.2-116.2&#10;&#9;&#9;&#9;c64.2,0,116.2,52,116.2,116.2C1194.7,388.2,1142.7,440.3,1078.5,440.3z" style="fill-rule: evenodd; clip-rule: evenodd; fill: rgb(255, 255, 255);"/>
		<path class="st20" d="M1224.4,324.1c0-39.9-16-76-41.9-102.3l-21,21c20.6,21,33.3,49.7,33.3,81.4c0,64.2-52,116.2-116.2,116.2&#10;&#9;&#9;&#9;c-31.7,0-60.4-12.7-81.3-33.2l-21,21c26.3,25.9,62.4,41.9,102.3,41.9C1159.1,469.9,1224.4,404.6,1224.4,324.1z" style="fill: rgb(230, 231, 232);"/>
	</g>
	<path class="st20" d="M1081.8,469.9c0,0,56.8,49.5,8.8,113c0,0,139.5-95.2,133.7-258.8l-56.2,93l-73.8,35.9L1081.8,469.9z" style="fill: rgb(230, 231, 232);"/>
</g>



</svg>